#N canvas 1088 661 669 454 10;
#X obj 204 147 poly 1;
#X obj 212 274 /~ 127;
#X obj 164 274 /~ 127;
#X obj 263 274 > 0;
#X obj 197 93 notein \$1;
#X obj 321 93 bela_trigIn \$2;
#X obj 264 355 bela_trigOut \$2;
#X obj 374 355 bela_led \$2;
#X obj 164 355 dac~ \$3 \$4;
#X obj 58 95 adc~ \$3 \$4;
#X obj 109 314 +~;
#X obj 159 314 +~;
#X connect 0 1 2 0;
#X connect 0 2 3 0;
#X connect 0 2 1 0;
#X connect 1 0 11 1;
#X connect 2 0 10 1;
#X connect 3 0 6 0;
#X connect 3 0 7 0;
#X connect 4 0 0 0;
#X connect 4 1 0 1;
#X connect 5 0 6 0;
#X connect 5 0 7 0;
#X connect 9 0 10 0;
#X connect 9 1 11 0;
#X connect 10 0 8 0;
#X connect 11 0 8 1;
