#N canvas 781 123 1110 477 10;
#X text 626 57 Audio left: adc~/dac~ 1;
#X text 626 67 Audio right: adc~/dac~ 2;
#X text 626 117 Trig in 1: adc~ 26;
#X text 626 127 Trig in 2: adc~ 25;
#X text 626 157 Switch 1: adc~ 17;
#X text 626 167 LED 1: dac~ 13;
#X text 626 177 LED 2: dac~ 15;
#X text 860 98 Trig in 3: adc~ 12;
#X text 859 108 Trig in 4: adc~ 14;
#X text 626 147 Trig out 2: dac~ 16;
#X text 626 137 Trig out 1: dac~ 11;
#X text 859 138 LED 3: dac~ 19;
#X text 859 148 LED 4: dac~ 20;
#X text 98 27 This needs to be somewhere in the patch;
#X text 98 39 for the LEDs to work;
#X text 859 118 Trig out 3: dac~ 23;
#X text 859 128 Trig out 4: dac~ 24;
#X obj 99 60 bela_enableLeds;
#X obj 104 108 bela_scope~;
#X text 859 58 CV in/out 5: adc~/dac~ 7;
#X text 859 68 CV in/out 6: adc~/dac~ 8;
#X text 859 78 CV in/out 7: adc~/dac~ 9;
#X text 859 88 CV in/out 8: adc~/dac~ 10;
#X text 626 77 CV in/out 1: adc~/dac~ 3;
#X text 626 87 CV in/out 2: adc~/dac~ 4;
#X text 627 97 CV in/out 3: adc~/dac~ 5;
#X text 626 107 CV in/out 4: adc~/dac~ 6;
#X text 663 33 Salt/Core;
#X text 896 34 Salt+/Expander;
#X text 604 10 BelaModular rev03;
#X text 626 187 PWM: dac~ 18 (for LEDs);
#X obj 41 193 notetocv 1 1 3 4;
#X obj 157 193 notetocv 2 2 5 6;
#X obj 277 193 notetocv 3 3 7 8;
#X obj 397 193 notetocv 4 4 9 10;
